<svg width="1087" height="975" viewBox="0 0 1087 975" fill="none" xmlns="http://www.w3.org/2000/svg">
<path d="M1201.63 261.707C1240.14 262.738 1270.63 294.497 1270.63 333.062C1270.63 371.628 1238.91 403.387 1200.39 402.15C1161.87 401.119 1131.39 369.359 1131.39 330.794C1131.39 292.229 1163.11 261.707 1201.63 261.707ZM1040.97 168.903C1079.49 168.903 1111.21 199.425 1111.21 237.99C1111.21 276.555 1080.72 308.315 1040.97 308.315C1001.22 308.315 970.734 277.793 970.734 239.228C971.97 200.456 1002.45 168.903 1040.97 168.903ZM864.454 225.41C902.97 225.41 934.69 257.17 934.69 295.735C934.69 334.3 902.97 366.059 864.454 366.059C825.938 366.059 794.219 334.3 794.219 295.735C794.219 256.138 825.938 224.379 864.454 225.41ZM532.843 159.829V94.0412C548.703 98.5782 563.327 103.115 576.921 107.652C588.249 110.952 599.577 115.489 610.906 117.758C615.437 118.789 622.234 118.789 624.5 116.727C626.765 113.427 627.795 106.621 626.765 102.084C617.703 70.3246 607.61 39.8025 597.312 8.04299C596.282 5.56823 596.282 3.29969 595.252 0H721.923C710.595 34.0281 700.502 66.8187 690.204 99.6094C689.174 104.146 687.938 113.221 691.234 115.489C693.499 118.789 702.562 118.789 707.093 116.52C732.016 109.715 756.938 101.878 782.89 92.8038V223.142C753.436 207.262 725.219 192.619 691.234 175.502C690.204 184.576 687.938 192.413 690.204 198.188L735.517 337.6C751.377 386.27 725.425 432.672 676.61 445.252C616.673 461.132 560.031 405.656 577.127 345.643C590.721 295.735 608.846 248.302 624.706 198.394C626.971 192.826 624.706 184.783 623.676 175.709C590.927 192.619 562.503 207.468 532.019 224.379C532.843 201.694 532.843 181.277 532.843 159.829ZM453.751 225.41C492.267 225.41 523.987 257.17 523.987 295.735C523.987 334.3 491.237 366.059 453.751 366.059C415.235 366.059 383.515 334.3 383.515 295.735C383.515 256.138 415.235 225.41 453.751 225.41ZM275.999 168.903C314.515 168.903 346.235 199.425 346.235 239.228C346.235 277.793 315.751 309.552 275.999 309.552C237.689 309.346 205.97 277.586 205.97 239.021C205.97 200.456 237.689 169.934 275.999 168.903ZM233.158 770.478C208.235 758.104 189.08 740.987 159.626 740.987C182.283 786.357 205.97 827.191 253.548 847.402C305.659 868.85 357.563 829.253 350.766 776.046C347.471 755.629 334.906 737.481 318.017 734.181C303.393 730.881 288.563 738.718 276.205 759.135C275.175 761.404 272.91 763.672 270.644 768.209C259.316 742.224 251.489 718.301 266.113 694.585C283.002 667.362 310.19 669.631 343.145 677.674C277.441 610.855 268.378 542.799 326.256 470.412C356.739 495.366 382.897 521.351 391.96 559.916C401.023 598.481 387.429 633.541 375.07 672.106C401.023 653.957 425.945 640.346 453.133 663.032C471.258 677.674 475.79 708.402 463.225 740.162C458.694 734.594 454.163 728.819 449.631 724.282C430.476 707.371 407.82 712.939 396.491 735.625C384.133 761.61 391.96 792.338 416.882 812.755C446.336 837.709 482.587 844.514 519.867 843.277C528.93 843.277 536.757 842.246 545.819 839.977C602.461 828.635 630.679 794.607 635.21 735.831C636.24 725.726 636.24 715.414 637.476 703.04C587.631 706.34 559.413 740.368 528.93 775.633C524.398 721.189 519.867 670.25 515.336 618.073C534.491 630.447 551.586 644.058 571.977 653.132C591.133 660.969 613.789 664.475 635.416 666.744C619.556 621.373 590.103 588.582 560.649 551.255H760.851C746.228 570.434 731.398 587.551 719.04 606.731C706.681 624.879 695.353 644.058 681.759 665.712C732.634 666.744 771.15 648.802 806.165 613.536C801.633 670.25 797.102 721.189 792.571 775.633C762.087 740.574 733.663 706.546 685.055 703.04C681.759 803.887 728.102 845.752 820.789 843.483C846.741 842.452 871.663 835.647 894.32 820.798C918.006 804.918 932.836 783.47 929.334 753.979C927.069 737.068 921.508 722.22 904.412 716.651C887.523 709.846 874.959 719.951 864.866 732.531C863.836 734.8 861.571 735.831 859.305 738.099C845.711 715.414 850.242 679.117 868.367 663.238C887.523 645.089 913.681 648.595 949.931 675.612C913.681 592.913 921.714 523.826 996.275 471.65C1041.59 528.363 1058.48 595.182 980.415 678.911C1009.87 671.074 1037.06 668.806 1055.18 695.822C1071.04 719.539 1063.01 744.493 1051.89 770.684C1046.33 763.878 1042.82 757.073 1038.29 752.536C1019.14 729.85 992.979 732.119 978.355 758.104C965.997 779.552 968.263 810.28 982.887 830.697C999.776 853.382 1030.47 863.488 1058.68 855.651C1084.64 847.814 1105.03 831.934 1120.89 810.28C1135.51 791.101 1148.07 769.447 1160.43 747.999C1132.21 745.73 1111.82 761.61 1087.93 776.252C1103.79 725.313 1117.38 676.643 1132.01 627.766C1145.6 654.989 1157.96 682.211 1170.52 708.196L1176.09 705.927C1189.68 674.168 1180.62 641.377 1176.09 607.349C1207.81 618.692 1238.29 630.035 1270.01 640.14C1266.71 644.677 1265.48 647.977 1263.21 651.483C1204.3 735.418 1170.52 830.491 1143.34 927.832C1140.04 939.174 1136.54 950.517 1134.27 961.86C1133.24 974.234 1126.45 975.471 1115.12 974.234C946.43 950.517 777.947 941.443 606.992 944.743C473.524 947.011 340.056 954.848 206.381 974.234C194.023 976.502 188.256 974.234 184.961 960.622C163.54 871.118 135.116 783.883 88.7729 703.453C77.4445 683.036 63.8506 662.619 50.2566 639.934C80.7401 628.591 111.43 618.486 144.179 605.906C139.647 639.934 131.82 672.724 145.209 706.752C166.629 683.036 176.928 654.576 188.256 626.322C202.468 670.662 217.298 719.332 233.158 770.478ZM117.609 261.707C156.125 261.707 186.608 293.466 186.608 332.031C186.608 370.596 154.889 402.356 116.373 402.356C77.8565 402.356 46.1372 370.596 46.1372 332.031C47.579 293.466 79.2983 261.707 117.609 261.707ZM0 508.771C0 470.206 31.7193 438.446 70.2356 438.446C108.752 438.446 140.471 468.968 140.471 508.771C140.471 547.336 109.988 577.858 70.2356 577.858C31.7193 578.889 0 547.13 0 508.771ZM1247.97 578.889C1208.42 578.889 1177.73 549.398 1177.73 509.802C1177.73 470.206 1208.22 439.477 1246.73 439.477C1286.28 439.477 1316.97 470 1318 508.565C1318.2 547.13 1286.49 578.889 1247.97 578.889Z" fill="white"/>
</svg>
