<svg width="1em" height="1em" viewBox="0 0 24 24" fill="#FF151F" xmlns="http://www.w3.org/2000/svg">
<path fill-rule="evenodd" clip-rule="evenodd" d="M22 12C22 17.5228 17.5228 22 12 22C6.47715 22 2 17.5228 2 12C2 6.47715 6.47715 2 12 2C17.5228 2 22 6.47715 22 12ZM15.1875 16.5625C15.5625 16.9375 16.1875 16.9375 16.5625 16.5625C16.9375 16.1875 16.9375 15.5625 16.5625 15.1875L13.375 12L16.5625 8.81252C16.9375 8.43754 16.9375 7.8125 16.5625 7.43752C16.1875 7.06253 15.5625 7.06253 15.1875 7.43752L12 10.625L8.81252 7.43752C8.43754 7.06253 7.8125 7.06253 7.43752 7.43752C7.06253 7.8125 7.06253 8.43754 7.43752 8.81252L10.625 12L7.43752 15.1875C7.06253 15.5625 7.06253 16.1875 7.43752 16.5625C7.8125 16.9375 8.43754 16.9375 8.81252 16.5625L12 13.375L15.1875 16.5625Z" />
</svg>
