<svg width="1em" height="1em" viewBox="0 0 24 24" fill="currentColor" xmlns="http://www.w3.org/2000/svg">
<path fill-rule="evenodd" clip-rule="evenodd" d="M19.5 12C19.5 11.3097 20.0597 10.75 20.75 10.75C21.4403 10.75 22 11.3097 22 12V20.75C22 21.4403 21.4403 22 20.75 22H3.25C2.55969 22 2 21.4403 2 20.75V3.25C2 2.55969 2.55969 2 3.25 2H12C12.6903 2 13.25 2.55969 13.25 3.25C13.25 3.94031 12.6903 4.5 12 4.5H4.5V19.5H19.5V12ZM16.375 2H20.75C21.4403 2 22 2.55969 22 3.25V7.625C22 8.31531 21.4403 8.875 20.75 8.875C20.0597 8.875 19.5 8.31531 19.5 7.625V6.26249L12.8812 12.8812C12.6375 13.125 12.3188 13.25 12 13.25C11.6812 13.25 11.3625 13.125 11.1188 12.8812C10.625 12.3938 10.625 11.6062 11.1188 11.1187L17.7375 4.5H16.375C15.6847 4.5 15.125 3.94031 15.125 3.25C15.125 2.55969 15.6847 2 16.375 2Z" />
</svg>
