<svg id="search-image" width="1em" height="1em" viewBox="0 0 24 24" fill="none" xmlns="http://www.w3.org/2000/svg">
<path d="M21.5264 18.9713L16.9282 14.3728C17.7095 13.129 18.1629 11.659 18.1629 10.0813C18.1629 5.61786 14.5446 2 10.0813 2C5.61803 2 2 5.61786 2 10.0813C2 14.5449 5.61786 18.1624 10.0813 18.1624C11.7982 18.1624 13.3885 17.6257 14.6971 16.7136L19.2405 21.2573C19.5562 21.5727 19.9701 21.7298 20.3835 21.7298C20.7973 21.7298 21.2107 21.5727 21.5269 21.2573C22.1578 20.6257 22.1578 19.6027 21.5264 18.9713ZM10.0813 15.5442C7.06453 15.5442 4.61873 13.0986 4.61873 10.0816C4.61873 7.0647 7.06453 4.6189 10.0813 4.6189C13.0982 4.6189 15.5439 7.0647 15.5439 10.0816C15.5439 13.0986 13.0982 15.5442 10.0813 15.5442Z" fill="currentColor"/>
</svg>
