<svg width="1em" height="1em" viewBox="0 0 24 24" fill="#4ECE3D" xmlns="http://www.w3.org/2000/svg">
<path fill-rule="evenodd" clip-rule="evenodd" d="M22 12C22 17.5228 17.5228 22 12 22C6.47715 22 2 17.5228 2 12C2 6.47715 6.47715 2 12 2C17.5228 2 22 6.47715 22 12ZM10.9375 16.25L17.4375 9.12497C17.8125 8.74999 17.8125 7.99997 17.375 7.62499C16.9375 7.18747 16.25 7.24996 15.8125 7.68748L10.125 13.875L8.18749 11.6875C7.74997 11.25 7.06249 11.25 6.62497 11.625C6.1875 12.0625 6.1875 12.75 6.56248 13.1875L9.31248 16.25C9.75 16.75 10.5 16.75 10.9375 16.25Z" />
</svg>
