<svg width="1em" height="1em" viewBox="0 0 24 24" fill="currentColor" xmlns="http://www.w3.org/2000/svg">
<path d="M19.5 4.5H18.6667V2.83328C18.6667 2.37338 18.2933 2 17.8333 2H17C16.5399 2 16.1667 2.37338 16.1667 2.83328V4.5H7.83328V2.83328C7.83328 2.37338 7.46005 2 7 2H6.16672C5.70667 2 5.33328 2.37338 5.33328 2.83328V4.5H4.5C3.12167 4.5 2 5.62167 2 7V19.5C2 20.8783 3.12167 22 4.5 22H19.5C20.8783 22 22 20.8783 22 19.5V7C22 5.62167 20.8783 4.5 19.5 4.5ZM20.3333 19.5C20.3333 19.9591 19.9591 20.3333 19.5 20.3333H4.5C4.04086 20.3333 3.66672 19.9591 3.66672 19.5V10.3667H20.3333V19.5Z" />
</svg>
