<svg width="1em" height="1em" viewBox="0 0 24 24" fill="none" xmlns="http://www.w3.org/2000/svg">
<path d="M12 2C6.479 2 2 6.47335 2 11.9947C2 17.5214 6.479 22 12 22C17.524 22 21.9992 17.5214 21.9992 11.9947C21.9993 6.47335 17.524 2 12 2ZM12.7126 17.559C12.4804 17.7657 12.2112 17.8696 11.9063 17.8696C11.5908 17.8696 11.3156 17.7676 11.0807 17.5631C10.8455 17.3591 10.7276 17.0734 10.7276 16.7063C10.7276 16.3807 10.8417 16.1066 11.0691 15.8845C11.2965 15.6624 11.5754 15.5514 11.9063 15.5514C12.2319 15.5514 12.506 15.6624 12.7285 15.8845C12.9506 16.1066 13.062 16.3807 13.062 16.7063C13.0616 17.0681 12.9452 17.3524 12.7126 17.559ZM15.6086 10.3794C15.4302 10.7103 15.2183 10.9956 14.9725 11.2362C14.7274 11.4767 14.2866 11.881 13.6503 12.4495C13.4749 12.6099 13.3338 12.7506 13.228 12.8718C13.1222 12.9935 13.0431 13.1045 12.9916 13.2054C12.9396 13.3062 12.8997 13.4072 12.8715 13.508C12.8432 13.6085 12.8007 13.7859 12.7431 14.0392C12.6452 14.5768 12.3377 14.8455 11.8208 14.8455C11.552 14.8455 11.3261 14.7578 11.142 14.582C10.9587 14.4062 10.8672 14.1453 10.8672 13.799C10.8672 13.365 10.9346 12.9889 11.069 12.6708C11.2027 12.3527 11.3815 12.0738 11.6036 11.8332C11.8261 11.5927 12.1257 11.3073 12.5033 10.9764C12.8342 10.6869 13.0733 10.4686 13.2204 10.3214C13.368 10.1738 13.4919 10.0097 13.5924 9.82897C13.6936 9.64789 13.7433 9.45176 13.7433 9.23984C13.7433 8.82613 13.5901 8.47754 13.2822 8.19333C12.9747 7.90911 12.5779 7.7668 12.0919 7.7668C11.5231 7.7668 11.1044 7.91022 10.8357 8.19708C10.5669 8.48394 10.3399 8.9063 10.1535 9.46459C9.97735 10.0489 9.64382 10.3409 9.15328 10.3409C8.86378 10.3409 8.61949 10.2389 8.42035 10.0349C8.22158 9.83082 8.12219 9.60987 8.12219 9.37196C8.12219 8.88106 8.27993 8.38339 8.59504 7.87933C8.91051 7.37528 9.37053 6.95778 9.97545 6.62725C10.58 6.29635 11.2859 6.13069 12.0919 6.13069C12.8414 6.13069 13.5028 6.26921 14.0765 6.54592C14.6502 6.82222 15.0937 7.19832 15.4065 7.67413C15.719 8.14956 15.8755 8.66645 15.8755 9.22474C15.8763 9.66336 15.7871 10.0485 15.6086 10.3794Z" fill="currentColor"/>
</svg>
