<svg width="1em" height="1em" viewBox="0 0 24 24" fill="none" xmlns="http://www.w3.org/2000/svg">
<path d="M12.9493 23.6164L21.6168 14.9491C21.8642 14.7017 22 14.372 22 14.0204C22 13.6684 21.864 13.3388 21.6168 13.0914L20.8297 12.3045C20.5826 12.0573 20.2527 11.9211 19.9009 11.9211C19.5493 11.9211 19.2082 12.0573 18.9612 12.3045L13.8937 17.3608L13.8937 1.29657C13.8937 0.572288 13.3267 0 12.6022 0L11.4895 0C10.765 0 10.1408 0.572288 10.1408 1.29657L10.1408 17.4182L5.04502 12.3047C4.79761 12.0575 4.47663 11.9213 4.12483 11.9213C3.77342 11.9213 3.44776 12.0575 3.20055 12.3047L2.41597 13.0916C2.16856 13.339 2.03373 13.6686 2.03373 14.0206C2.03373 14.3722 2.17031 14.7019 2.41772 14.9493L11.085 23.6166C11.3332 23.8646 11.6645 24.001 12.0167 24C12.37 24.0008 12.7015 23.8646 12.9493 23.6164Z" fill="currentColor"/>
</svg>
