<svg width="1em" height="1em" viewBox="0 0 24 24" fill="#FD7B1F" xmlns="http://www.w3.org/2000/svg">
<path d="M12.2 2.19998C10.8867 2.19952 9.5861 2.45787 8.37264 2.96025C7.15917 3.46264 6.0566 4.19921 5.12792 5.12789C4.19924 6.05657 3.46267 7.15914 2.96028 8.3726C2.4579 9.58607 2.19955 10.8866 2.20001 12.2C2.19955 13.5133 2.4579 14.8139 2.96028 16.0274C3.46267 17.2408 4.19924 18.3434 5.12792 19.2721C6.0566 20.2008 7.15917 20.9373 8.37264 21.4397C9.5861 21.9421 10.8867 22.2004 12.2 22.2C13.5134 22.2004 14.8139 21.9421 16.0274 21.4397C17.2409 20.9373 18.3434 20.2008 19.2721 19.2721C20.2008 18.3434 20.9374 17.2408 21.4397 16.0274C21.9421 14.8139 22.2005 13.5133 22.2 12.2C22.2005 10.8866 21.9421 9.58607 21.4397 8.3726C20.9374 7.15914 20.2008 6.05657 19.2721 5.12789C18.3434 4.19921 17.2409 3.46264 16.0274 2.96025C14.8139 2.45787 13.5134 2.19952 12.2 2.19998ZM12.2 19.4028C11.901 19.4035 11.6084 19.3154 11.3595 19.1497C11.1106 18.984 10.9164 18.7481 10.8017 18.4719C10.6869 18.1958 10.6567 17.8918 10.7149 17.5985C10.7731 17.3051 10.917 17.0357 11.1284 16.8242C11.3399 16.6128 11.6094 16.4688 11.9027 16.4107C12.196 16.3525 12.5 16.3827 12.7762 16.4975C13.0523 16.6122 13.2882 16.8064 13.4539 17.0553C13.6196 17.3042 13.7077 17.5967 13.707 17.8958C13.7061 18.2952 13.547 18.678 13.2646 18.9604C12.9822 19.2428 12.5994 19.4019 12.2 19.4028ZM14.0287 6.95523L13.4588 14.6475C13.4552 14.7007 13.4315 14.7506 13.3926 14.7869C13.3536 14.8233 13.3023 14.8435 13.249 14.8433H11.1511C11.0978 14.8435 11.0464 14.8233 11.0075 14.7869C10.9685 14.7506 10.9448 14.7007 10.9413 14.6475L10.3713 6.95523C10.3559 6.70557 10.3917 6.4554 10.4766 6.22012C10.5616 5.98484 10.6938 5.76944 10.8651 5.58719C11.0364 5.40494 11.2432 5.2597 11.4728 5.16042C11.7024 5.06114 11.9499 5.00992 12.2 5.00992C12.4501 5.00992 12.6976 5.06114 12.9272 5.16042C13.1568 5.2597 13.3636 5.40494 13.535 5.58719C13.7063 5.76944 13.8385 5.98484 13.9234 6.22012C14.0083 6.4554 14.0441 6.70557 14.0287 6.95523Z" />
</svg>
